# xmcd
#
# Track frame offsets: 
#        150
#        14063
#        42089
#        63177
#        82657
#        99204
#        114863
#        132596
#        150995
#        172530
#
# Disc length: 2638 seconds
#
# Revision: 0
# Processed by: cddbd v1.5.2PL0 Copyright (c) Steve Scherf et al.
# Submitted via: ExactAudioCopyFreeDBPlugin 1.0
#
DISCID=620a4c0a
DTITLE=Cordovas - Cordovas
DYEAR=2017
DGENRE=Country
TTITLE0=All I Found
TTITLE1=Southern Rain
TTITLE2=Maria
TTITLE3=Step Back Red
TTITLE4=Storms
TTITLE5=Old Dog
TTITLE6=Salame
TTITLE7=Standin On The Porch
TTITLE8=Louisiana Hurricane
TTITLE9=Feel Good To Be Free
EXTD=
EXTT0=
EXTT1=
EXTT2=
EXTT3=
EXTT4=
EXTT5=
EXTT6=
EXTT7=
EXTT8=
EXTT9=
PLAYORDER=
